<svg xmlns:xlink="http://www.w3.org/1999/xlink" xmlns="http://www.w3.org/2000/svg" fill="none" focusable="false" height="22" role="img" stroke-width="1" viewBox="0 0 24 24" width="22"><path fill-rule="evenodd" clip-rule="evenodd" d="M9.03862 3.10732L9.15385 2.83077C9.20609 2.70539 9.23094 2.57807 9.27154 2.3701C9.28133 2.31991 9.29205 2.265 9.30429 2.20432C9.55779 0.94701 10.6675 0 12 0C13.3325 0 14.4422 0.94701 14.6957 2.20432C14.7079 2.26497 14.7187 2.31982 14.7284 2.36999C14.769 2.57797 14.7939 2.70539 14.8462 2.83077L14.9614 3.10732C17.6308 4.25576 19.5 6.9096 19.5 10V11.2505C19.5001 12.9299 20.4891 14.4521 22.0238 15.1343L24 16.0126V16.7298C24 17.1944 24 17.5879 23.9737 17.9105C23.946 18.2487 23.8857 18.5745 23.7275 18.885C23.4878 19.3554 23.1054 19.7378 22.635 19.9775C22.3245 20.1357 21.9987 20.196 21.6605 20.2237C21.3379 20.25 20.9445 20.25 20.4799 20.25H17C16.6188 20.25 16.1648 20.6006 15.8926 21.25C15.2561 22.7682 13.7891 24 12 24C10.2109 24 8.74388 22.7682 8.1074 21.25C7.83515 20.6006 7.38115 20.25 7 20.25H3.52022C3.05558 20.25 2.66208 20.25 2.33953 20.2237C2.00133 20.196 1.67555 20.1357 1.36502 19.9775C0.894619 19.7378 0.512168 19.3554 0.272484 18.885C0.114264 18.5745 0.0539654 18.2487 0.0263337 17.9105C-2.18768e-05 17.5879 -1.18634e-05 17.1944 5.34358e-07 16.7298V16.0126L1.97592 15.1344C3.5106 14.4523 4.49995 12.9302 4.5 11.2508V10C4.5 6.9096 6.36915 4.25576 9.03862 3.10732ZM10.7747 2.50079C10.8898 1.92976 11.3956 1.5 12 1.5C12.6044 1.5 13.1102 1.92976 13.2253 2.50079C13.2315 2.5314 13.238 2.56565 13.245 2.60287C12.8401 2.53521 12.4242 2.5 12 2.5C11.5758 2.5 11.1599 2.53521 10.755 2.60287C10.762 2.56565 10.7685 2.5314 10.7747 2.50079ZM12 4C8.68629 4 6 6.68629 6 10V11.2505C5.99993 13.5227 4.6618 15.5821 2.58547 16.505L1.50024 16.9873C1.50108 17.3347 1.50483 17.5861 1.52135 17.7883C1.5414 18.0338 1.57648 18.1402 1.60899 18.204C1.70487 18.3922 1.85785 18.5451 2.04601 18.641C2.10983 18.6735 2.21624 18.7086 2.46168 18.7286C2.71587 18.7494 3.04758 18.75 3.55 18.75H20.45C20.9524 18.75 21.2841 18.7494 21.5383 18.7286C21.7838 18.7086 21.8902 18.6735 21.954 18.641C22.1422 18.5451 22.2951 18.3922 22.391 18.204C22.4235 18.1402 22.4586 18.0338 22.4786 17.7883C22.4952 17.5861 22.4989 17.3347 22.4998 16.9873L21.4149 16.5051C19.3385 15.5822 18.0001 13.523 18 11.2508V10C18 6.68629 15.3137 4 12 4ZM9.49075 20.6701C9.43307 20.5325 9.36367 20.3909 9.28274 20.25H14.7173C14.6363 20.3909 14.5669 20.5325 14.5093 20.6701C14.0575 21.7476 13.0675 22.5 12 22.5C10.9325 22.5 9.9425 21.7476 9.49075 20.6701Z" fill="#4A5264"></path></svg>