<svg xmlns:xlink="http://www.w3.org/1999/xlink" xmlns="http://www.w3.org/2000/svg" fill="none" focusable="false" height="24" role="img" viewBox="0 0 24 24" width="24"><path d="M21.0115 12.3938C21.0115 11.6382 20.9502 11.0869 20.8175 10.5151H12.1895V13.9254H17.2539C17.1518 14.7729 16.6005 16.0492 15.3752 16.9069L15.358 17.0211L18.086 19.1344L18.275 19.1533C20.0108 17.5502 21.0115 15.1915 21.0115 12.3938Z" fill="#4285F4"></path><path d="M12.1899 21.3793C14.6711 21.3793 16.754 20.5624 18.2755 19.1533L15.3756 16.9069C14.5996 17.4481 13.5581 17.8259 12.1899 17.8259C9.75978 17.8259 7.69723 16.2228 6.96198 14.0071L6.85421 14.0162L4.01757 16.2116L3.98047 16.3147C5.49164 19.3166 8.59571 21.3793 12.1899 21.3793Z" fill="#34A853"></path><path d="M6.9617 14.0072C6.7677 13.4354 6.65542 12.8227 6.65542 12.1897C6.65542 11.5566 6.7677 10.944 6.95149 10.3722L6.94635 10.2504L4.07417 8.01984L3.9802 8.06454C3.35738 9.31025 3 10.7091 3 12.1897C3 13.6702 3.35738 15.069 3.9802 16.3148L6.9617 14.0072Z" fill="#FBBC05"></path><path d="M12.1899 6.55329C13.9154 6.55329 15.0794 7.29866 15.7431 7.92155L18.3366 5.38929C16.7438 3.90875 14.671 3 12.1899 3C8.59568 3 5.49163 5.06254 3.98047 8.06445L6.95176 10.3721C7.6972 8.15638 9.75974 6.55329 12.1899 6.55329Z" fill="#EB4335"></path></svg>