<svg xmlns:xlink="http://www.w3.org/1999/xlink" xmlns="http://www.w3.org/2000/svg" fill="none" focusable="false" height="24" role="img" viewBox="0 0 24 24" width="24"><g clip-path="url(#clip0_892_53771)" fill="none"><g filter="url(#filter0_iii_892_53771)" fill="none"><path fill-rule="evenodd" clip-rule="evenodd" d="M4.25 6C3.83579 6 3.5 6.33579 3.5 6.75V13.2222L3.25 13.2778V7.75C3.25 7.33579 2.91421 7 2.5 7C2.08579 7 1.75 7.33579 1.75 7.75V13.6111L1.5 13.6667V10.75C1.5 10.3358 1.16421 10 0.75 10C0.335786 10 0 10.3358 0 10.75V14V16V17C0 18.1104 0.603298 19.0799 1.5 19.5987V26H7V19.6211C7.51986 19.3171 7.92313 18.8429 8.13844 18.2745L8.53293 17.2331C8.83057 16.4473 9.44409 15.8224 10.2242 15.5103L11.0623 15.1751C11.3081 15.0768 11.4346 14.8039 11.3509 14.5527L11.3419 14.5257C11.1377 13.9131 10.5645 13.5 9.91886 13.5H9.87132C9.4735 13.5 9.09196 13.658 8.81066 13.9393L8.54289 14.2071C8.35536 14.3946 8.101 14.5 7.83579 14.5H7.75C7.19772 14.5 6.75 14.0523 6.75 13.5V13V12.5V7.75C6.75 7.33579 6.41421 7 6 7C5.58579 7 5.25 7.33579 5.25 7.75V12.8333L5 12.8889V6.75C5 6.33579 4.66421 6 4.25 6Z" fill="url(&quot;#paint0_linear_892_53771&quot;)"></path></g><g filter="url(#filter1_f_892_53771)" fill="none"><path d="M2.25 7.75C2.25 7.61193 2.36193 7.5 2.5 7.5C2.63807 7.5 2.75 7.61193 2.75 7.75V13H2.25V7.75Z" fill="#FFE2B7"></path></g><g filter="url(#filter2_f_892_53771)" fill="none"><path d="M4 6.75C4 6.61193 4.11193 6.5 4.25 6.5C4.38807 6.5 4.5 6.61193 4.5 6.75V13H4V6.75Z" fill="#FFE2B7"></path></g><g filter="url(#filter3_f_892_53771)" fill="none"><path d="M5.75 7.75C5.75 7.61193 5.86193 7.5 6 7.5C6.13807 7.5 6.25 7.61193 6.25 7.75V13H5.75V7.75Z" fill="#FFE2B7"></path></g><g opacity="0.6" filter="url(#filter4_f_892_53771)" fill="none"><path d="M7.98177 16.2773L6.63837 18.2924C6.55192 18.4221 6.40639 18.5 6.25055 18.5C5.42004 18.5 5.00412 17.4959 5.59138 16.9086L6.85355 15.6464C6.94732 15.5527 7.0745 15.5 7.20711 15.5H7.56574C7.96509 15.5 8.20329 15.9451 7.98177 16.2773Z" fill="#FFE2B7"></path></g><g opacity="0.6" filter="url(#filter5_f_892_53771)" fill="none"><path d="M2.87577 17.7069L2.78974 17.8503C2.32482 18.6251 1.15209 18.4348 0.956065 17.5527L0.538418 15.6733C0.513507 15.5612 0.527942 15.4439 0.579298 15.3412L0.98713 14.5255C1.18237 14.1351 1.74921 14.1648 1.90251 14.5736L2.91519 17.2741C2.96871 17.4168 2.9542 17.5762 2.87577 17.7069Z" fill="#FFE2B7"></path></g><g opacity="0.6" filter="url(#filter6_f_892_53771)" fill="none"><ellipse cx="3" cy="14.5" rx="1" ry="0.5" fill="#FFE2B7"></ellipse></g><g filter="url(#filter7_f_892_53771)" fill="none"><ellipse cx="4.14286" cy="24.25" rx="3.25" ry="1.85714" transform="rotate(90 4.14286 24.25)" fill="#FFC15C"></ellipse></g><g opacity="0.6" filter="url(#filter8_f_892_53771)" fill="none"><circle cx="5" cy="14" r="0.5" fill="#FFE2B7"></circle></g><g style="mix-blend-mode: multiply;" fill="none"><path d="M4 20.5C3.2 20.5 2 20 1.5 19.6V22.5L4 20.5Z" fill="url(&quot;#paint1_linear_892_53771&quot;)"></path></g><g style="mix-blend-mode: multiply;" fill="none"><path d="M4.5 20.5C5.3 20.5 6.5 20 7 19.6V22.5L4.5 20.5Z" fill="url(&quot;#paint2_linear_892_53771&quot;)"></path></g><g filter="url(#filter9_iii_892_53771)" fill="none"><path fill-rule="evenodd" clip-rule="evenodd" d="M19.75 6C20.1642 6 20.5 6.33579 20.5 6.75V13.2222L20.75 13.2778V7.75C20.75 7.33579 21.0858 7 21.5 7C21.9142 7 22.25 7.33579 22.25 7.75V13.6111L22.5 13.6667V10.75C22.5 10.3358 22.8358 10 23.25 10C23.6642 10 24 10.3358 24 10.75V14V16V17C24 18.1104 23.3967 19.0799 22.5 19.5987V26H17V19.6211C16.4801 19.3171 16.0769 18.8429 15.8616 18.2745L15.4671 17.2331C15.1694 16.4473 14.5559 15.8224 13.7758 15.5103L12.9377 15.1751C12.6919 15.0768 12.5654 14.8039 12.6491 14.5527L12.6581 14.5257C12.8623 13.9131 13.4355 13.5 14.0811 13.5H14.1287C14.5265 13.5 14.908 13.658 15.1893 13.9393L15.4571 14.2071C15.6446 14.3946 15.899 14.5 16.1642 14.5H16.25C16.8023 14.5 17.25 14.0523 17.25 13.5V13V12.5V7.75C17.25 7.33579 17.5858 7 18 7C18.4142 7 18.75 7.33579 18.75 7.75V12.8333L19 12.8889V6.75C19 6.33579 19.3358 6 19.75 6Z" fill="url(&quot;#paint3_linear_892_53771&quot;)"></path></g><g filter="url(#filter10_f_892_53771)" fill="none"><path d="M21.75 7.75C21.75 7.61193 21.6381 7.5 21.5 7.5C21.3619 7.5 21.25 7.61193 21.25 7.75V13H21.75V7.75Z" fill="#FFE2B7"></path></g><g filter="url(#filter11_f_892_53771)" fill="none"><path d="M20 6.75C20 6.61193 19.8881 6.5 19.75 6.5C19.6119 6.5 19.5 6.61193 19.5 6.75V13H20V6.75Z" fill="#FFE2B7"></path></g><g filter="url(#filter12_f_892_53771)" fill="none"><path d="M18.25 7.75C18.25 7.61193 18.1381 7.5 18 7.5C17.8619 7.5 17.75 7.61193 17.75 7.75V13H18.25V7.75Z" fill="#FFE2B7"></path></g><g opacity="0.6" filter="url(#filter13_f_892_53771)" fill="none"><path d="M16.0182 16.2773L17.3616 18.2924C17.4481 18.4221 17.5936 18.5 17.7495 18.5C18.58 18.5 18.9959 17.4959 18.4086 16.9086L17.1464 15.6464C17.0527 15.5527 16.9255 15.5 16.7929 15.5H16.4343C16.0349 15.5 15.7967 15.9451 16.0182 16.2773Z" fill="#FFE2B7"></path></g><g opacity="0.6" filter="url(#filter14_f_892_53771)" fill="none"><path d="M21.1242 17.7069L21.2103 17.8503C21.6752 18.6251 22.8479 18.4348 23.0439 17.5527L23.4616 15.6733C23.4865 15.5612 23.4721 15.4439 23.4207 15.3412L23.0129 14.5255C22.8176 14.1351 22.2508 14.1648 22.0975 14.5736L21.0848 17.2741C21.0313 17.4168 21.0458 17.5762 21.1242 17.7069Z" fill="#FFE2B7"></path></g><g opacity="0.6" filter="url(#filter15_f_892_53771)" fill="none"><ellipse cx="1" cy="0.5" rx="1" ry="0.5" transform="matrix(-1 0 0 1 22 14)" fill="#FFE2B7"></ellipse></g><g filter="url(#filter16_f_892_53771)" fill="none"><ellipse cx="3.25" cy="1.85714" rx="3.25" ry="1.85714" transform="matrix(4.37114e-08 1 1 -4.37114e-08 18 21)" fill="#FFC15C"></ellipse></g><g opacity="0.6" filter="url(#filter17_f_892_53771)" fill="none"><circle cx="0.5" cy="0.5" r="0.5" transform="matrix(-1 0 0 1 19.5 13.5)" fill="#FFE2B7"></circle></g><g style="mix-blend-mode: multiply;" fill="none"><path d="M20 20.5C20.8 20.5 22 20 22.5 19.6V22.5L20 20.5Z" fill="url(&quot;#paint4_linear_892_53771&quot;)"></path></g><g style="mix-blend-mode: multiply;" fill="none"><path d="M19.5 20.5C18.7 20.5 17.5 20 17 19.6V22.5L19.5 20.5Z" fill="url(&quot;#paint5_linear_892_53771&quot;)"></path></g><g filter="url(#filter18_iii_892_53771)" fill="none"><path d="M10 0H13L12.25 5H10.75L10 0Z" fill="url(&quot;#paint6_linear_892_53771&quot;)"></path></g><g filter="url(#filter19_iii_892_53771)" fill="none"><path d="M5.45093 1.83496L8.049 0.334961L9.89948 5.04009L8.60045 5.79009L5.45093 1.83496Z" fill="url(&quot;#paint7_linear_892_53771&quot;)"></path></g><g filter="url(#filter20_iii_892_53771)" fill="none"><path d="M14.9509 0.334961L17.549 1.83496L14.3995 5.79009L13.1004 5.04009L14.9509 0.334961Z" fill="url(&quot;#paint8_linear_892_53771&quot;)"></path></g></g><defs><filter id="filter0_iii_892_53771" x="-0.5" y="5.5" width="12.3767" height="21" filterUnits="userSpaceOnUse" color-interpolation-filters="sRGB"><feFlood flood-opacity="0" result="BackgroundImageFix"></feFlood><feBlend mode="normal" in="SourceGraphic" in2="BackgroundImageFix" result="shape"></feBlend><feColorMatrix in="SourceAlpha" type="matrix" values="0 0 0 0 0 0 0 0 0 0 0 0 0 0 0 0 0 0 127 0" result="hardAlpha"></feColorMatrix><feOffset dx="-0.5" dy="0.5"></feOffset><feGaussianBlur stdDeviation="0.25"></feGaussianBlur><feComposite in2="hardAlpha" operator="arithmetic" k2="-1" k3="1"></feComposite><feColorMatrix type="matrix" values="0 0 0 0 1 0 0 0 0 0.9 0 0 0 0 0.943902 0 0 0 0.7 0"></feColorMatrix><feBlend mode="normal" in2="shape" result="effect1_innerShadow_892_53771"></feBlend><feColorMatrix in="SourceAlpha" type="matrix" values="0 0 0 0 0 0 0 0 0 0 0 0 0 0 0 0 0 0 127 0" result="hardAlpha"></feColorMatrix><feOffset dx="0.5" dy="-0.5"></feOffset><feGaussianBlur stdDeviation="0.25"></feGaussianBlur><feComposite in2="hardAlpha" operator="arithmetic" k2="-1" k3="1"></feComposite><feColorMatrix type="matrix" values="0 0 0 0 0.847059 0 0 0 0 0.333333 0 0 0 0 0.227451 0 0 0 0.25 0"></feColorMatrix><feBlend mode="normal" in2="effect1_innerShadow_892_53771" result="effect2_innerShadow_892_53771"></feBlend><feColorMatrix in="SourceAlpha" type="matrix" values="0 0 0 0 0 0 0 0 0 0 0 0 0 0 0 0 0 0 127 0" result="hardAlpha"></feColorMatrix><feOffset></feOffset><feGaussianBlur stdDeviation="0.375"></feGaussianBlur><feComposite in2="hardAlpha" operator="arithmetic" k2="-1" k3="1"></feComposite><feColorMatrix type="matrix" values="0 0 0 0 0.666667 0 0 0 0 0.16 0 0 0 0 0 0 0 0 1 0"></feColorMatrix><feBlend mode="normal" in2="effect2_innerShadow_892_53771" result="effect3_innerShadow_892_53771"></feBlend></filter><filter id="filter1_f_892_53771" x="1.75" y="7" width="1.5" height="6.5" filterUnits="userSpaceOnUse" color-interpolation-filters="sRGB"><feFlood flood-opacity="0" result="BackgroundImageFix"></feFlood><feBlend mode="normal" in="SourceGraphic" in2="BackgroundImageFix" result="shape"></feBlend><feGaussianBlur stdDeviation="0.25" result="effect1_foregroundBlur_892_53771"></feGaussianBlur></filter><filter id="filter2_f_892_53771" x="3.5" y="6" width="1.5" height="7.5" filterUnits="userSpaceOnUse" color-interpolation-filters="sRGB"><feFlood flood-opacity="0" result="BackgroundImageFix"></feFlood><feBlend mode="normal" in="SourceGraphic" in2="BackgroundImageFix" result="shape"></feBlend><feGaussianBlur stdDeviation="0.25" result="effect1_foregroundBlur_892_53771"></feGaussianBlur></filter><filter id="filter3_f_892_53771" x="5.25" y="7" width="1.5" height="6.5" filterUnits="userSpaceOnUse" color-interpolation-filters="sRGB"><feFlood flood-opacity="0" result="BackgroundImageFix"></feFlood><feBlend mode="normal" in="SourceGraphic" in2="BackgroundImageFix" result="shape"></feBlend><feGaussianBlur stdDeviation="0.25" result="effect1_foregroundBlur_892_53771"></feGaussianBlur></filter><filter id="filter4_f_892_53771" x="4.31641" y="14.5" width="4.75024" height="5" filterUnits="userSpaceOnUse" color-interpolation-filters="sRGB"><feFlood flood-opacity="0" result="BackgroundImageFix"></feFlood><feBlend mode="normal" in="SourceGraphic" in2="BackgroundImageFix" result="shape"></feBlend><feGaussianBlur stdDeviation="0.5" result="effect1_foregroundBlur_892_53771"></feGaussianBlur></filter><filter id="filter5_f_892_53771" x="-0.973389" y="12.7491" width="5.42041" height="7.0871" filterUnits="userSpaceOnUse" color-interpolation-filters="sRGB"><feFlood flood-opacity="0" result="BackgroundImageFix"></feFlood><feBlend mode="normal" in="SourceGraphic" in2="BackgroundImageFix" result="shape"></feBlend><feGaussianBlur stdDeviation="0.75" result="effect1_foregroundBlur_892_53771"></feGaussianBlur></filter><filter id="filter6_f_892_53771" x="0.75" y="12.75" width="4.5" height="3.5" filterUnits="userSpaceOnUse" color-interpolation-filters="sRGB"><feFlood flood-opacity="0" result="BackgroundImageFix"></feFlood><feBlend mode="normal" in="SourceGraphic" in2="BackgroundImageFix" result="shape"></feBlend><feGaussianBlur stdDeviation="0.625" result="effect1_foregroundBlur_892_53771"></feGaussianBlur></filter><filter id="filter7_f_892_53771" x="1.53564" y="20.25" width="5.21436" height="8" filterUnits="userSpaceOnUse" color-interpolation-filters="sRGB"><feFlood flood-opacity="0" result="BackgroundImageFix"></feFlood><feBlend mode="normal" in="SourceGraphic" in2="BackgroundImageFix" result="shape"></feBlend><feGaussianBlur stdDeviation="0.375" result="effect1_foregroundBlur_892_53771"></feGaussianBlur></filter><filter id="filter8_f_892_53771" x="3.25" y="12.25" width="3.5" height="3.5" filterUnits="userSpaceOnUse" color-interpolation-filters="sRGB"><feFlood flood-opacity="0" result="BackgroundImageFix"></feFlood><feBlend mode="normal" in="SourceGraphic" in2="BackgroundImageFix" result="shape"></feBlend><feGaussianBlur stdDeviation="0.625" result="effect1_foregroundBlur_892_53771"></feGaussianBlur></filter><filter id="filter9_iii_892_53771" x="12.1233" y="5.5" width="12.3767" height="21" filterUnits="userSpaceOnUse" color-interpolation-filters="sRGB"><feFlood flood-opacity="0" result="BackgroundImageFix"></feFlood><feBlend mode="normal" in="SourceGraphic" in2="BackgroundImageFix" result="shape"></feBlend><feColorMatrix in="SourceAlpha" type="matrix" values="0 0 0 0 0 0 0 0 0 0 0 0 0 0 0 0 0 0 127 0" result="hardAlpha"></feColorMatrix><feOffset dx="-0.5" dy="0.5"></feOffset><feGaussianBlur stdDeviation="0.25"></feGaussianBlur><feComposite in2="hardAlpha" operator="arithmetic" k2="-1" k3="1"></feComposite><feColorMatrix type="matrix" values="0 0 0 0 1 0 0 0 0 0.9 0 0 0 0 0.943902 0 0 0 0.7 0"></feColorMatrix><feBlend mode="normal" in2="shape" result="effect1_innerShadow_892_53771"></feBlend><feColorMatrix in="SourceAlpha" type="matrix" values="0 0 0 0 0 0 0 0 0 0 0 0 0 0 0 0 0 0 127 0" result="hardAlpha"></feColorMatrix><feOffset dx="0.5" dy="-0.5"></feOffset><feGaussianBlur stdDeviation="0.25"></feGaussianBlur><feComposite in2="hardAlpha" operator="arithmetic" k2="-1" k3="1"></feComposite><feColorMatrix type="matrix" values="0 0 0 0 0.847059 0 0 0 0 0.333333 0 0 0 0 0.227451 0 0 0 0.25 0"></feColorMatrix><feBlend mode="normal" in2="effect1_innerShadow_892_53771" result="effect2_innerShadow_892_53771"></feBlend><feColorMatrix in="SourceAlpha" type="matrix" values="0 0 0 0 0 0 0 0 0 0 0 0 0 0 0 0 0 0 127 0" result="hardAlpha"></feColorMatrix><feOffset></feOffset><feGaussianBlur stdDeviation="0.375"></feGaussianBlur><feComposite in2="hardAlpha" operator="arithmetic" k2="-1" k3="1"></feComposite><feColorMatrix type="matrix" values="0 0 0 0 0.666667 0 0 0 0 0.16 0 0 0 0 0 0 0 0 1 0"></feColorMatrix><feBlend mode="normal" in2="effect2_innerShadow_892_53771" result="effect3_innerShadow_892_53771"></feBlend></filter><filter id="filter10_f_892_53771" x="20.75" y="7" width="1.5" height="6.5" filterUnits="userSpaceOnUse" color-interpolation-filters="sRGB"><feFlood flood-opacity="0" result="BackgroundImageFix"></feFlood><feBlend mode="normal" in="SourceGraphic" in2="BackgroundImageFix" result="shape"></feBlend><feGaussianBlur stdDeviation="0.25" result="effect1_foregroundBlur_892_53771"></feGaussianBlur></filter><filter id="filter11_f_892_53771" x="19" y="6" width="1.5" height="7.5" filterUnits="userSpaceOnUse" color-interpolation-filters="sRGB"><feFlood flood-opacity="0" result="BackgroundImageFix"></feFlood><feBlend mode="normal" in="SourceGraphic" in2="BackgroundImageFix" result="shape"></feBlend><feGaussianBlur stdDeviation="0.25" result="effect1_foregroundBlur_892_53771"></feGaussianBlur></filter><filter id="filter12_f_892_53771" x="17.25" y="7" width="1.5" height="6.5" filterUnits="userSpaceOnUse" color-interpolation-filters="sRGB"><feFlood flood-opacity="0" result="BackgroundImageFix"></feFlood><feBlend mode="normal" in="SourceGraphic" in2="BackgroundImageFix" result="shape"></feBlend><feGaussianBlur stdDeviation="0.25" result="effect1_foregroundBlur_892_53771"></feGaussianBlur></filter><filter id="filter13_f_892_53771" x="14.9333" y="14.5" width="4.75024" height="5" filterUnits="userSpaceOnUse" color-interpolation-filters="sRGB"><feFlood flood-opacity="0" result="BackgroundImageFix"></feFlood><feBlend mode="normal" in="SourceGraphic" in2="BackgroundImageFix" result="shape"></feBlend><feGaussianBlur stdDeviation="0.5" result="effect1_foregroundBlur_892_53771"></feGaussianBlur></filter><filter id="filter14_f_892_53771" x="19.553" y="12.7491" width="5.42041" height="7.0871" filterUnits="userSpaceOnUse" color-interpolation-filters="sRGB"><feFlood flood-opacity="0" result="BackgroundImageFix"></feFlood><feBlend mode="normal" in="SourceGraphic" in2="BackgroundImageFix" result="shape"></feBlend><feGaussianBlur stdDeviation="0.75" result="effect1_foregroundBlur_892_53771"></feGaussianBlur></filter><filter id="filter15_f_892_53771" x="18.75" y="12.75" width="4.5" height="3.5" filterUnits="userSpaceOnUse" color-interpolation-filters="sRGB"><feFlood flood-opacity="0" result="BackgroundImageFix"></feFlood><feBlend mode="normal" in="SourceGraphic" in2="BackgroundImageFix" result="shape"></feBlend><feGaussianBlur stdDeviation="0.625" result="effect1_foregroundBlur_892_53771"></feGaussianBlur></filter><filter id="filter16_f_892_53771" x="17.25" y="20.25" width="5.21436" height="8" filterUnits="userSpaceOnUse" color-interpolation-filters="sRGB"><feFlood flood-opacity="0" result="BackgroundImageFix"></feFlood><feBlend mode="normal" in="SourceGraphic" in2="BackgroundImageFix" result="shape"></feBlend><feGaussianBlur stdDeviation="0.375" result="effect1_foregroundBlur_892_53771"></feGaussianBlur></filter><filter id="filter17_f_892_53771" x="17.25" y="12.25" width="3.5" height="3.5" filterUnits="userSpaceOnUse" color-interpolation-filters="sRGB"><feFlood flood-opacity="0" result="BackgroundImageFix"></feFlood><feBlend mode="normal" in="SourceGraphic" in2="BackgroundImageFix" result="shape"></feBlend><feGaussianBlur stdDeviation="0.625" result="effect1_foregroundBlur_892_53771"></feGaussianBlur></filter><filter id="filter18_iii_892_53771" x="9.5" y="-0.5" width="4" height="6" filterUnits="userSpaceOnUse" color-interpolation-filters="sRGB"><feFlood flood-opacity="0" result="BackgroundImageFix"></feFlood><feBlend mode="normal" in="SourceGraphic" in2="BackgroundImageFix" result="shape"></feBlend><feColorMatrix in="SourceAlpha" type="matrix" values="0 0 0 0 0 0 0 0 0 0 0 0 0 0 0 0 0 0 127 0" result="hardAlpha"></feColorMatrix><feOffset dx="-0.5" dy="0.5"></feOffset><feGaussianBlur stdDeviation="0.25"></feGaussianBlur><feComposite in2="hardAlpha" operator="arithmetic" k2="-1" k3="1"></feComposite><feColorMatrix type="matrix" values="0 0 0 0 1 0 0 0 0 0.9 0 0 0 0 0.943902 0 0 0 0.3 0"></feColorMatrix><feBlend mode="normal" in2="shape" result="effect1_innerShadow_892_53771"></feBlend><feColorMatrix in="SourceAlpha" type="matrix" values="0 0 0 0 0 0 0 0 0 0 0 0 0 0 0 0 0 0 127 0" result="hardAlpha"></feColorMatrix><feOffset dx="0.5" dy="-0.5"></feOffset><feGaussianBlur stdDeviation="0.25"></feGaussianBlur><feComposite in2="hardAlpha" operator="arithmetic" k2="-1" k3="1"></feComposite><feColorMatrix type="matrix" values="0 0 0 0 0.494118 0 0 0 0 0.0392157 0 0 0 0 0.854902 0 0 0 0.25 0"></feColorMatrix><feBlend mode="normal" in2="effect1_innerShadow_892_53771" result="effect2_innerShadow_892_53771"></feBlend><feColorMatrix in="SourceAlpha" type="matrix" values="0 0 0 0 0 0 0 0 0 0 0 0 0 0 0 0 0 0 127 0" result="hardAlpha"></feColorMatrix><feOffset></feOffset><feGaussianBlur stdDeviation="0.125"></feGaussianBlur><feComposite in2="hardAlpha" operator="arithmetic" k2="-1" k3="1"></feComposite><feColorMatrix type="matrix" values="0 0 0 0 0.495741 0 0 0 0 0.0395814 0 0 0 0 0.854152 0 0 0 1 0"></feColorMatrix><feBlend mode="normal" in2="effect2_innerShadow_892_53771" result="effect3_innerShadow_892_53771"></feBlend></filter><filter id="filter19_iii_892_53771" x="4.95093" y="-0.165039" width="5.44849" height="6.45514" filterUnits="userSpaceOnUse" color-interpolation-filters="sRGB"><feFlood flood-opacity="0" result="BackgroundImageFix"></feFlood><feBlend mode="normal" in="SourceGraphic" in2="BackgroundImageFix" result="shape"></feBlend><feColorMatrix in="SourceAlpha" type="matrix" values="0 0 0 0 0 0 0 0 0 0 0 0 0 0 0 0 0 0 127 0" result="hardAlpha"></feColorMatrix><feOffset dx="-0.5" dy="0.5"></feOffset><feGaussianBlur stdDeviation="0.25"></feGaussianBlur><feComposite in2="hardAlpha" operator="arithmetic" k2="-1" k3="1"></feComposite><feColorMatrix type="matrix" values="0 0 0 0 1 0 0 0 0 0.9 0 0 0 0 0.943902 0 0 0 0.3 0"></feColorMatrix><feBlend mode="normal" in2="shape" result="effect1_innerShadow_892_53771"></feBlend><feColorMatrix in="SourceAlpha" type="matrix" values="0 0 0 0 0 0 0 0 0 0 0 0 0 0 0 0 0 0 127 0" result="hardAlpha"></feColorMatrix><feOffset dx="0.5" dy="-0.5"></feOffset><feGaussianBlur stdDeviation="0.25"></feGaussianBlur><feComposite in2="hardAlpha" operator="arithmetic" k2="-1" k3="1"></feComposite><feColorMatrix type="matrix" values="0 0 0 0 0.494118 0 0 0 0 0.0392157 0 0 0 0 0.854902 0 0 0 0.25 0"></feColorMatrix><feBlend mode="normal" in2="effect1_innerShadow_892_53771" result="effect2_innerShadow_892_53771"></feBlend><feColorMatrix in="SourceAlpha" type="matrix" values="0 0 0 0 0 0 0 0 0 0 0 0 0 0 0 0 0 0 127 0" result="hardAlpha"></feColorMatrix><feOffset></feOffset><feGaussianBlur stdDeviation="0.125"></feGaussianBlur><feComposite in2="hardAlpha" operator="arithmetic" k2="-1" k3="1"></feComposite><feColorMatrix type="matrix" values="0 0 0 0 0.495741 0 0 0 0 0.0395814 0 0 0 0 0.854152 0 0 0 1 0"></feColorMatrix><feBlend mode="normal" in2="effect2_innerShadow_892_53771" result="effect3_innerShadow_892_53771"></feBlend></filter><filter id="filter20_iii_892_53771" x="12.6003" y="-0.165039" width="5.44873" height="6.45514" filterUnits="userSpaceOnUse" color-interpolation-filters="sRGB"><feFlood flood-opacity="0" result="BackgroundImageFix"></feFlood><feBlend mode="normal" in="SourceGraphic" in2="BackgroundImageFix" result="shape"></feBlend><feColorMatrix in="SourceAlpha" type="matrix" values="0 0 0 0 0 0 0 0 0 0 0 0 0 0 0 0 0 0 127 0" result="hardAlpha"></feColorMatrix><feOffset dx="-0.5" dy="0.5"></feOffset><feGaussianBlur stdDeviation="0.25"></feGaussianBlur><feComposite in2="hardAlpha" operator="arithmetic" k2="-1" k3="1"></feComposite><feColorMatrix type="matrix" values="0 0 0 0 1 0 0 0 0 0.9 0 0 0 0 0.943902 0 0 0 0.3 0"></feColorMatrix><feBlend mode="normal" in2="shape" result="effect1_innerShadow_892_53771"></feBlend><feColorMatrix in="SourceAlpha" type="matrix" values="0 0 0 0 0 0 0 0 0 0 0 0 0 0 0 0 0 0 127 0" result="hardAlpha"></feColorMatrix><feOffset dx="0.5" dy="-0.5"></feOffset><feGaussianBlur stdDeviation="0.25"></feGaussianBlur><feComposite in2="hardAlpha" operator="arithmetic" k2="-1" k3="1"></feComposite><feColorMatrix type="matrix" values="0 0 0 0 0.494118 0 0 0 0 0.0392157 0 0 0 0 0.854902 0 0 0 0.25 0"></feColorMatrix><feBlend mode="normal" in2="effect1_innerShadow_892_53771" result="effect2_innerShadow_892_53771"></feBlend><feColorMatrix in="SourceAlpha" type="matrix" values="0 0 0 0 0 0 0 0 0 0 0 0 0 0 0 0 0 0 127 0" result="hardAlpha"></feColorMatrix><feOffset></feOffset><feGaussianBlur stdDeviation="0.125"></feGaussianBlur><feComposite in2="hardAlpha" operator="arithmetic" k2="-1" k3="1"></feComposite><feColorMatrix type="matrix" values="0 0 0 0 0.495741 0 0 0 0 0.0395814 0 0 0 0 0.854152 0 0 0 1 0"></feColorMatrix><feBlend mode="normal" in2="effect2_innerShadow_892_53771" result="effect3_innerShadow_892_53771"></feBlend></filter><linearGradient id="paint0_linear_892_53771" x1="7" y1="5.44444" x2="-4.37282" y2="20.5756" gradientUnits="userSpaceOnUse"><stop stop-color="#FCCACB"></stop><stop offset="0.34375" stop-color="#FFC560"></stop><stop offset="1" stop-color="#FF6800"></stop></linearGradient><linearGradient id="paint1_linear_892_53771" x1="1.5" y1="20" x2="2.5" y2="21.5" gradientUnits="userSpaceOnUse"><stop stop-color="#F5701F"></stop><stop offset="1" stop-color="#F5701F" stop-opacity="0"></stop></linearGradient><linearGradient id="paint2_linear_892_53771" x1="7" y1="20" x2="6" y2="21.5" gradientUnits="userSpaceOnUse"><stop stop-color="#F5701F"></stop><stop offset="1" stop-color="#F5701F" stop-opacity="0"></stop></linearGradient><linearGradient id="paint3_linear_892_53771" x1="17" y1="5.44444" x2="28.3728" y2="20.5756" gradientUnits="userSpaceOnUse"><stop stop-color="#FCCACB"></stop><stop offset="0.34375" stop-color="#FFC560"></stop><stop offset="1" stop-color="#FF6800"></stop></linearGradient><linearGradient id="paint4_linear_892_53771" x1="22.5" y1="20" x2="21.5" y2="21.5" gradientUnits="userSpaceOnUse"><stop stop-color="#F5701F"></stop><stop offset="1" stop-color="#F5701F" stop-opacity="0"></stop></linearGradient><linearGradient id="paint5_linear_892_53771" x1="17" y1="20" x2="18" y2="21.5" gradientUnits="userSpaceOnUse"><stop stop-color="#F5701F"></stop><stop offset="1" stop-color="#F5701F" stop-opacity="0"></stop></linearGradient><linearGradient id="paint6_linear_892_53771" x1="12.2" y1="1.37753e-7" x2="8.39568" y2="4.32491" gradientUnits="userSpaceOnUse"><stop offset="0.252473" stop-color="#B3CCF4"></stop><stop offset="0.770241" stop-color="#A36EEC"></stop></linearGradient><linearGradient id="paint7_linear_892_53771" x1="7.35618" y1="0.734961" x2="6.224" y2="6.3826" gradientUnits="userSpaceOnUse"><stop offset="0.252473" stop-color="#B3CCF4"></stop><stop offset="0.770241" stop-color="#A36EEC"></stop></linearGradient><linearGradient id="paint8_linear_892_53771" x1="16.8562" y1="1.43496" x2="11.3991" y2="3.27828" gradientUnits="userSpaceOnUse"><stop offset="0.252473" stop-color="#B3CCF4"></stop><stop offset="0.770241" stop-color="#A36EEC"></stop></linearGradient><clipPath id="clip0_892_53771"><rect width="24" height="24" fill="white"></rect></clipPath><linearGradient id="paint0_linear_892_53771" x1="7" y1="5.44444" x2="-4.37282" y2="20.5756" gradientUnits="userSpaceOnUse"><stop stop-color="#FCCACB"></stop><stop offset="0.34375" stop-color="#FFC560"></stop><stop offset="1" stop-color="#FF6800"></stop></linearGradient><linearGradient id="paint1_linear_892_53771" x1="1.5" y1="20" x2="2.5" y2="21.5" gradientUnits="userSpaceOnUse"><stop stop-color="#F5701F"></stop><stop offset="1" stop-color="#F5701F" stop-opacity="0"></stop></linearGradient><linearGradient id="paint2_linear_892_53771" x1="7" y1="20" x2="6" y2="21.5" gradientUnits="userSpaceOnUse"><stop stop-color="#F5701F"></stop><stop offset="1" stop-color="#F5701F" stop-opacity="0"></stop></linearGradient><linearGradient id="paint3_linear_892_53771" x1="17" y1="5.44444" x2="28.3728" y2="20.5756" gradientUnits="userSpaceOnUse"><stop stop-color="#FCCACB"></stop><stop offset="0.34375" stop-color="#FFC560"></stop><stop offset="1" stop-color="#FF6800"></stop></linearGradient><linearGradient id="paint4_linear_892_53771" x1="22.5" y1="20" x2="21.5" y2="21.5" gradientUnits="userSpaceOnUse"><stop stop-color="#F5701F"></stop><stop offset="1" stop-color="#F5701F" stop-opacity="0"></stop></linearGradient><linearGradient id="paint5_linear_892_53771" x1="17" y1="20" x2="18" y2="21.5" gradientUnits="userSpaceOnUse"><stop stop-color="#F5701F"></stop><stop offset="1" stop-color="#F5701F" stop-opacity="0"></stop></linearGradient><linearGradient id="paint6_linear_892_53771" x1="12.2" y1="1.37753e-7" x2="8.39568" y2="4.32491" gradientUnits="userSpaceOnUse"><stop offset="0.252473" stop-color="#B3CCF4"></stop><stop offset="0.770241" stop-color="#A36EEC"></stop></linearGradient><linearGradient id="paint7_linear_892_53771" x1="7.35618" y1="0.734961" x2="6.224" y2="6.3826" gradientUnits="userSpaceOnUse"><stop offset="0.252473" stop-color="#B3CCF4"></stop><stop offset="0.770241" stop-color="#A36EEC"></stop></linearGradient><linearGradient id="paint8_linear_892_53771" x1="16.8562" y1="1.43496" x2="11.3991" y2="3.27828" gradientUnits="userSpaceOnUse"><stop offset="0.252473" stop-color="#B3CCF4"></stop><stop offset="0.770241" stop-color="#A36EEC"></stop></linearGradient></defs></svg>