<svg xmlns:xlink="http://www.w3.org/1999/xlink" xmlns="http://www.w3.org/2000/svg" fill="none" focusable="false" height="24" role="img" stroke-width="1" viewBox="0 0 24 24" width="24"><path d="M15.5 10C15.5 10.8284 16.1716 11.5 17 11.5C17.8284 11.5 18.5 10.8284 18.5 10C18.5 9.17157 17.8284 8.5 17 8.5C16.1716 8.5 15.5 9.17157 15.5 10Z" fill="#4A5264"></path><path d="M7 11.5C6.17157 11.5 5.5 10.8284 5.5 10C5.5 9.17157 6.17157 8.5 7 8.5C7.82843 8.5 8.5 9.17157 8.5 10C8.5 10.8284 7.82843 11.5 7 11.5Z" fill="#4A5264"></path><path d="M10.5 10C10.5 10.8284 11.1716 11.5 12 11.5C12.8284 11.5 13.5 10.8284 13.5 10C13.5 9.17157 12.8284 8.5 12 8.5C11.1716 8.5 10.5 9.17157 10.5 10Z" fill="#4A5264"></path><path fill-rule="evenodd" clip-rule="evenodd" d="M22 9.62791C22 16.6248 16.916 20.5581 13.5 22.3142C12.9467 22.5987 12.4371 22.826 12 23V22.2558C12 21.9672 11.9583 21.6893 11.8812 21.4245C11.5154 20.169 10.3517 19.2077 9.04693 18.7958C5.10165 17.5505 2 13.9167 2 9.62791C2 4.31056 6.76783 0 12 0C17.2322 0 22 4.31056 22 9.62791ZM9.49846 17.3654C6.08567 16.2881 3.5 13.1709 3.5 9.62791C3.5 5.21949 7.51339 1.5 12 1.5C16.4866 1.5 20.5 5.21949 20.5 9.62791C20.5 15.5323 16.375 19.0377 13.2452 20.7536C12.6353 19.025 11.0286 17.8484 9.49846 17.3654Z" fill="#4A5264"></path></svg>