<svg xmlns:xlink="http://www.w3.org/1999/xlink" xmlns="http://www.w3.org/2000/svg" fill="none" focusable="false" height="20" role="img" stroke-width="1" viewBox="0 0 24 24" width="20"><path fill-rule="evenodd" clip-rule="evenodd" d="M17.75 2C15.9551 2 14.5 3.45507 14.5 5.25C14.5 5.55888 14.5431 5.8577 14.6236 6.14076L8.52018 9.67432C7.93438 9.10241 7.13335 8.75 6.25 8.75C4.45507 8.75 3 10.2051 3 12C3 13.7949 4.45507 15.25 6.25 15.25C7.12925 15.25 7.92695 14.9008 8.51201 14.3336L14.6141 17.8932C14.5397 18.1662 14.5 18.4534 14.5 18.75C14.5 20.5449 15.9551 22 17.75 22C19.5449 22 21 20.5449 21 18.75C21 16.9551 19.5449 15.5 17.75 15.5C16.7908 15.5 15.9286 15.9155 15.3338 16.5764L9.32025 13.0685C9.43671 12.7339 9.5 12.3743 9.5 12C9.5 11.6297 9.43806 11.2738 9.32398 10.9422L15.3572 7.44931C15.9512 8.09523 16.8033 8.5 17.75 8.5C19.5449 8.5 21 7.04493 21 5.25C21 3.45507 19.5449 2 17.75 2ZM16 5.25C16 4.2835 16.7835 3.5 17.75 3.5C18.7165 3.5 19.5 4.2835 19.5 5.25C19.5 6.2165 18.7165 7 17.75 7C16.7835 7 16 6.2165 16 5.25ZM16 18.75C16 17.7835 16.7835 17 17.75 17C18.7165 17 19.5 17.7835 19.5 18.75C19.5 19.7165 18.7165 20.5 17.75 20.5C16.7835 20.5 16 19.7165 16 18.75ZM6.25 10.25C5.2835 10.25 4.5 11.0335 4.5 12C4.5 12.9665 5.2835 13.75 6.25 13.75C7.2165 13.75 8 12.9665 8 12C8 11.0335 7.2165 10.25 6.25 10.25Z" fill="#373F51"></path></svg>