<svg xmlns:xlink="http://www.w3.org/1999/xlink" xmlns="http://www.w3.org/2000/svg" fill="none" focusable="false" height="24" role="img" stroke-width="1" viewBox="0 0 24 24" width="24" class="AvatarPreview__AvatarIcon-sc-1t4rtph-2 jLCotc"><g clip-path="url(#clip0_891_56289)" fill="none"><path fill-rule="evenodd" clip-rule="evenodd" d="M24 12C24 18.6274 18.6274 24 12 24C5.37258 24 0 18.6274 0 12C0 5.37258 5.37258 0 12 0C18.6274 0 24 5.37258 24 12ZM21.17 17.1186C19.3739 20.3294 15.9404 22.5 12 22.5C8.05951 22.5 4.62603 20.3294 2.82996 17.1187C3.76979 16.5342 6.73805 15 12 15C17.2619 15 20.2301 16.5342 21.17 17.1186ZM12 13C14.2091 13 16 11.2091 16 9C16 6.79086 14.2091 5 12 5C9.79086 5 8 6.79086 8 9C8 11.2091 9.79086 13 12 13Z" fill="#E5E7EB"></path></g><defs><clipPath id="clip0_891_56289"><rect width="24" height="24" fill="white"></rect></clipPath></defs></svg>