<svg xmlns:xlink="http://www.w3.org/1999/xlink" xmlns="http://www.w3.org/2000/svg" fill="none" focusable="false" height="24" role="img" stroke-width="1" viewBox="0 0 24 24" width="24" aria-hidden="true"><path d="M21.0156 2.98443C18.7701 0.738914 15.1294 0.738914 12.8839 2.98443L10.0555 5.81286L11.1161 6.87352L13.9446 4.04509C15.6043 2.38536 18.2952 2.38536 19.955 4.04509C21.6147 5.70482 21.6147 8.39577 19.955 10.0555L17.1265 12.8839C15.4668 14.5437 12.7759 14.5437 11.1161 12.8839L10.0555 13.9446C12.301 16.1901 15.9417 16.1901 18.1872 13.9446L21.0156 11.1162C23.2611 8.87064 23.2611 5.22994 21.0156 2.98443Z" fill="#14171F"></path><path d="M13.9446 10.0555C11.6991 7.80998 8.05837 7.80998 5.81286 10.0555L2.98443 12.8839C0.738914 15.1294 0.738914 18.7701 2.98443 21.0157C5.22994 23.2612 8.87064 23.2612 11.1162 21.0157L13.9446 18.1872L12.8839 17.1266L10.0555 19.955C8.39577 21.6147 5.70482 21.6147 4.04509 19.955C2.38536 18.2953 2.38536 15.6043 4.04509 13.9446L6.87352 11.1162C8.53324 9.45643 11.2242 9.45643 12.8839 11.1162L13.9446 10.0555Z" fill="#14171F"></path></svg>