<svg xmlns:xlink="http://www.w3.org/1999/xlink" xmlns="http://www.w3.org/2000/svg" fill="none" focusable="false" height="24" role="img" stroke-width="1" viewBox="0 0 24 24" width="24"><path fill-rule="evenodd" clip-rule="evenodd" d="M11.5133 15.8523C11.0608 14.8845 10.958 13.8204 11.1764 12.8235C10.1795 13.0419 9.11541 12.9391 8.14756 12.4866L3.54721 10.4894C3.28012 10.3734 3.03565 10.2673 2.85049 10.1669C2.68476 10.0771 2.39325 9.90645 2.24106 9.58536C2.06673 9.21755 2.0824 8.78789 2.28306 8.43375C2.45824 8.1246 2.76141 7.97566 2.93324 7.89811C3.12523 7.81147 3.37676 7.72346 3.6516 7.62729L20.2119 1.8312C20.4386 1.75179 20.6547 1.67613 20.8345 1.63097C21.0083 1.58732 21.2963 1.52966 21.5977 1.63511C21.9568 1.76075 22.2391 2.04308 22.3648 2.40217C22.4702 2.70356 22.4126 2.99158 22.3689 3.16537C22.3238 3.34514 22.2481 3.56125 22.1687 3.78803L16.3726 20.3483C16.2764 20.6232 16.1884 20.8747 16.1018 21.0667C16.0242 21.2385 15.8753 21.5417 15.5661 21.7168C15.212 21.9175 14.7824 21.9332 14.4145 21.7588C14.0934 21.6067 13.9228 21.3151 13.833 21.1494C13.7326 20.9643 13.6265 20.7198 13.5105 20.4528L11.5133 15.8523ZM20.2063 4.85426L13.5181 11.5424C12.5491 12.5115 12.292 13.9843 12.8756 15.2244L12.8804 15.2346L14.9249 19.9438L20.2063 4.85426ZM19.1456 3.7936L12.4575 10.4818C11.4884 11.4508 10.0156 11.7079 8.77553 11.1243L8.76526 11.1195L4.05613 9.07499L19.1456 3.7936Z" fill="#14171F"></path><path d="M7.96957 14.9697L3.46957 19.4697L4.53023 20.5303L9.03023 16.0303L7.96957 14.9697Z" fill="#14171F"></path><path d="M2.92374 15.5199L5.42374 12.5199L6.57607 13.4801L4.07607 16.4801L2.92374 15.5199Z" fill="#14171F"></path><path d="M10.5198 17.4238L7.51977 19.9238L8.48004 21.0762L11.48 18.5762L10.5198 17.4238Z" fill="#14171F"></path></svg>